# xmcd
# 
# Track frame offsets:
#     150
#     16912
#     31901
#     49729
#     62475
#     78003
#     91670
#     103337
#     122713
#     138347
#     151450
#     169237
#     182167
#     196077
#     216278
#     229202
#     240620
#     255243
#     271402
#     286495
#     302027
#     318266
# 
# Disc length: 4409
# 
# Revision: 0
# Processed by: cddbd v1.5.2PL0 Copyright (c) Steve Scherf et al.
# Submitted via: fre:ac v1.0.17
# 
DISCID=26113716
DTITLE=Renée Martel - Country
DYEAR=0
DGENRE=Country
TTITLE0=Cow Girl Dorée
TTITLE1=Si on pouvait recommencer
TTITLE2=Mille après milles
TTITLE3=Ton coeur est froid
TTITLE4=Nous c'est un peu fou
TTITLE5=Bonsoir mon amour
TTITLE6=Un coin du ciel
TTITLE7=Un jour à la fois
TTITLE8=Tu n'es plus la
TTITLE9=Si on pouvait recommencer 2
TTITLE10=Quand un bateau passe
TTITLE11=Quand le soleil dit bonjour aux montagnes
TTITLE12=Prends ma main
TTITLE13=Nos jeux d'enfants
TTITLE14=Mon enfant je te pardonne
TTITLE15=Liverpool
TTITLE16=Je vais à Londre
TTITLE17=J'ai un amour qui ne veut pas mourir
TTITLE18=Divorcé
TTITLE19=C'est mon histoire
TTITLE20=Cadeau
TTITLE21=Amour secret
EXTD=
EXTT0=
EXTT1=
EXTT2=
EXTT3=
EXTT4=
EXTT5=
EXTT6=
EXTT7=
EXTT8=
EXTT9=
EXTT10=
EXTT11=
EXTT12=
EXTT13=
EXTT14=
EXTT15=
EXTT16=
EXTT17=
EXTT18=
EXTT19=
EXTT20=
EXTT21=
PLAYORDER=
